<?xml version="1.0" encoding="utf-8"?>
<!-- Generator: Adobe Illustrator 26.5.0, SVG Export Plug-In . SVG Version: 6.00 Build 0)  -->
<svg version="1.1" id="Layer_1" xmlns="http://www.w3.org/2000/svg" xmlns:xlink="http://www.w3.org/1999/xlink" x="0px" y="0px"
	 viewBox="0 0 176 40" style="enable-background:new 0 0 176 40;" xml:space="preserve">
<style type="text/css">
	.st0{fill:#FFFFFF;}
	.st1{fill:#FEFEFE;}
	.st2{fill:#F73331;}
	.st3{fill:#F73431;}
	.st4{fill:#F3F1F1;}
	.st5{fill:#F3F1F0;}
	.st6{fill:#F73432;}
	.st7{fill:#FEF178;}
	.st8{fill:#FBD440;}
	.st9{fill:#F8C443;}
</style>
<g>
	<path class="st0" d="M65.7,39c-4.4-1.3-7.7-2.7-12-4.5c-0.7-0.3-1.4-0.4-2.2-0.5c-6.6-0.5-13-5.4-13-15.2c0-8.7,5.6-15.7,14.9-15.7
		c9.6,0,14.4,7.2,14.4,15.1c0,6.4-2.9,11.1-6.4,12.9v0.2c2,0.6,4.3,1.1,6.5,1.6L65.7,39z M59.4,18.5c0-5.2-2.3-9-6.2-9
		c-3.8,0-6.2,3.8-6.2,9.1c0,5.4,2.4,9.1,6.2,9.1C57.2,27.7,59.4,24,59.4,18.5z"/>
	<path class="st0" d="M73.1,33.9V21.1h-2.2V17h2.2v-0.6c0-2.1,0.7-4.5,2.2-5.9c1.4-1.3,3.4-1.7,4.9-1.7c1.1,0,2,0.1,2.8,0.3
		l-0.1,4.2c-0.5-0.1-1-0.2-1.8-0.2c-1.8,0-2.6,1.4-2.6,3V17H82v4.1h-3.5v12.8H73.1z"/>
	<path class="st0" d="M86.3,9.2h5.5v24.7h-5.5V9.2z"/>
	<path class="st0" d="M102.1,12.3c0,1.5-1.1,2.7-3,2.7c-1.8,0-2.9-1.2-2.9-2.7s1.1-2.7,2.9-2.7C101,9.6,102,10.8,102.1,12.3z
		 M96.4,33.9V17h5.5v16.9H96.4z"/>
	<path class="st0" d="M120.2,33.5c-1.1,0.5-3.1,0.9-5.3,0.9c-5.8,0-9.5-3.5-9.5-8.7c0-4.8,3.5-9,10.3-9c1.5,0,3.2,0.3,4.5,0.7
		l-0.9,4c-0.7-0.3-1.8-0.6-3.4-0.6c-3,0-4.9,1.9-4.9,4.6c0,3.1,2.3,4.7,5,4.7c1.5,0,2.6-0.3,3.5-0.6L120.2,33.5z"/>
	<path class="st0" d="M128.9,24.1L128.9,24.1c0.5-0.6,1-1.3,1.4-1.9l3.8-5.1h6.8l-6.7,6.8L142,34h-6.9l-4.6-6.9l-1.5,1.7V34h-5.5
		V9.2h5.5v14.9H128.9z"/>
	<path class="st0" d="M154.2,31.1c0,1.5-1.1,2.7-3,2.7c-1.8,0-2.9-1.2-2.9-2.7s1.1-2.7,2.9-2.7C153.1,28.4,154.1,29.6,154.2,31.1z"
		/>
</g>
<g>
	<path class="st1" d="M27.6,20c-0.7,4.9-1.7,9.8-2.3,14.7c-0.3,2.9-1.5,4.2-4.4,3.5c-1.5,0-2.9,0-4.4,0c-1.7,0-3.3,0-5-0.1
		c-2.4-0.7-4.7,2.1-7.1,0.2c-2.9-6.6-2.4-14-4.2-20.9c-0.4-1.8,0.5-3,1.6-4.2C2.7,11,4.7,9.4,5.2,6.9c1.4-1.4,2.6-3.2,5-2.7
		c3.6-5.4,5.3-5.4,9.2,0c2.3,0.6,4.2,1.7,4.6,4.4c0,2.3,3.4,2.6,3,5.1l0,0l0,0C28.6,15.8,27.9,18,27.6,20z"/>
	<path class="st2" d="M16.6,38.2c-1.7,0-3.3,0-5-0.1c-0.8-0.7-1.3-1.6-1.3-2.6c0-6.2-0.7-12.3-0.6-18.4c0.3-0.6,0.5-1.2,0.8-1.6
		c0.1-0.2,0.2-0.4,0.3-0.5c2-3.3,4.2-3.3,7-0.2l0,0c0.1,0.2,0.3,0.3,0.5,0.5C19.3,23,18.9,30.7,16.6,38.2z"/>
	<path class="st3" d="M27.6,20c-0.7,4.9-1.7,9.8-2.3,14.7c-0.3,2.9-1.5,4.2-4.4,3.5c-0.9-1-1.3-2.3-1.1-3.6
		c0.9-6.4,0.5-12.9,1.9-19.2c0.2-0.3,0.3-0.6,0.5-0.9c0,0,0,0,0-0.1c1.1-1.7,2.5-2.7,4.7-0.7l0,0C28.6,15.8,27.9,18,27.6,20z"/>
	<path class="st4" d="M11.5,38.2c-2.4-0.7-4.7,2.1-7.1,0.2c1.3-2.5,1.7-5.2,1.2-7.9c-0.7-4-0.7-8-0.7-12C5,17.7,5,17,5.1,16.3
		c0-0.3,0.1-0.5,0.1-0.8c0.1-0.3,0.2-0.7,0.3-1c0.4-1,1.1-1.8,2.6-1.7s2.3,0.9,2.6,2.1c0.1,0.5,0.1,1,0.1,1.6l0,0
		C11,23.7,11.3,30.9,11.5,38.2z"/>
	<path class="st5" d="M22.7,15c-0.6,7.7-1.2,15.5-1.8,23.2c-1.5,0-2.9,0-4.4,0c0.3-7.7,0.6-15.5,0.8-23.2c0.1-0.1,0.2-0.3,0.3-0.4
		c2-2.7,2.6-2.7,4.7-0.1C22.5,14.7,22.6,14.8,22.7,15z"/>
	<path class="st6" d="M4.4,38.4c-2.9-6.6-2.4-14-4.2-20.9c-0.4-1.8,0.5-3,1.6-4.2c2.5-0.4,3.3-0.5,3.6,1.2c0.2,0.8,0.3,1.9,0.4,3.5
		C6.2,23.8,6.5,29.6,7,35.4C7.4,37.6,6.7,38.6,4.4,38.4z"/>
	<path class="st7" d="M27.1,13.8L27.1,13.8c-1.8-1-3.1,0-4.4,1.1c-0.1-0.1-0.3-0.3-0.4-0.4c-1.5-1.4-3.1-1.4-4.6,0.1
		c-0.1,0.1-0.2,0.2-0.3,0.3c-2.8-2.5-5.2-2.5-6.6,1.4c-0.1-0.3-0.3-0.7-0.4-1c-0.5-1.1-1.2-2.1-2.6-1.9C5.2,14,6.5,16.5,5.9,18
		c-0.3-0.8-0.4-1.7-0.7-2.5c-0.4-1.3-1.2-2.4-3.4-2.2C2.7,11.1,4.7,9.5,5.2,7c3.7,3.4,8,1.9,12.2,1.5c2.3-0.2,4.5-1,6.7,0.2
		C24.2,11,27.5,11.3,27.1,13.8z"/>
	<path class="st8" d="M24.1,8.7c-4.7,1.4-9.7,0.5-14.5,2.2C8.3,11.3,5.9,9.3,5.2,7c1.4-1.4,2.6-3.2,5-2.7c3.1,0.2,6.1-3.1,9.2,0
		C21.9,5,23.7,6.1,24.1,8.7z"/>
	<path class="st9" d="M19.5,4.4c-2.1-0.1-4.3-1.4-6.2,1c-1.3,1.7-2-0.7-3-1C13.9-1,15.6-1,19.5,4.4z"/>
</g>
</svg>
